<?xml version="1.0" standalone="no"?>
<!DOCTYPE svg PUBLIC "-//W3C//DTD SVG 20010904//EN"
 "http://www.w3.org/TR/2001/REC-SVG-20010904/DTD/svg10.dtd">
<svg version="1.0" xmlns="http://www.w3.org/2000/svg"
 width="346.000000pt" height="80.000000pt" viewBox="0 0 346.000000 80.000000"
 preserveAspectRatio="xMidYMid meet">

<g transform="translate(0.000000,80.000000) scale(0.100000,-0.100000)"
fill="#000000" stroke="none">
<path d="M0 400 l0 -400 1730 0 1730 0 0 400 0 400 -1730 0 -1730 0 0 -400z
m399 90 c29 -71 56 -128 59 -126 4 2 30 61 57 130 l50 126 53 0 52 0 0 -195 0
-195 -40 0 -40 0 -1 128 0 127 -51 -128 c-51 -127 -52 -128 -82 -125 -28 3
-33 10 -80 128 l-51 125 -3 -127 -3 -128 -39 0 -40 0 0 195 0 195 53 0 53 0
53 -130z m541 22 c19 -9 45 -33 58 -52 33 -49 28 -146 -8 -186 -40 -42 -78
-57 -132 -52 -79 8 -128 68 -128 156 0 83 66 152 145 152 17 0 46 -8 65 -18z
m360 1 c42 -24 50 -53 50 -173 l0 -110 -40 0 -40 0 0 97 c0 76 -4 100 -17 115
-20 22 -51 23 -75 1 -15 -13 -18 -32 -18 -115 l0 -98 -40 0 -40 0 0 145 0 145
35 0 c28 0 35 -4 35 -20 0 -11 5 -20 10 -20 6 0 10 4 10 10 0 13 51 39 78 40
13 0 37 -7 52 -17z m329 -10 c33 -25 61 -79 61 -120 l0 -33 -100 0 c-92 0
-100 -1 -100 -19 0 -43 75 -66 108 -33 11 11 29 16 54 14 l38 -3 -15 -28 c-28
-54 -118 -77 -190 -47 -50 21 -75 68 -75 143 0 52 4 66 27 94 51 60 134 74
192 32z m635 15 c14 -6 28 -19 31 -29 6 -17 8 -16 28 7 15 17 36 27 64 31 37
5 45 2 73 -25 l30 -30 0 -126 0 -126 -40 0 -40 0 0 104 c0 110 -9 136 -49 136
-32 0 -40 -24 -43 -131 l-3 -104 -40 0 -40 0 -3 104 c-1 58 -8 111 -14 118
-14 18 -38 16 -60 -4 -15 -14 -18 -32 -18 -120 l0 -103 -40 0 -40 0 0 150 0
150 40 0 c33 0 40 -3 40 -20 0 -18 2 -17 25 5 26 27 60 32 99 13z m473 1 c15
-6 38 -20 51 -31 20 -20 22 -30 22 -145 l0 -123 -36 0 c-27 0 -37 5 -41 20 -5
20 -5 20 -30 0 -76 -59 -187 16 -154 103 13 33 37 46 108 57 63 11 77 19 67
43 -10 27 -44 31 -74 8 -21 -15 -37 -19 -64 -14 -35 5 -35 6 -21 33 26 50 108
74 172 49z m358 -3 c20 -9 41 -28 51 -48 23 -44 24 -143 1 -185 -32 -61 -111
-81 -161 -42 l-26 20 0 -76 0 -76 -42 3 -43 3 -3 203 -2 202 45 0 c38 0 45 -3
45 -20 0 -18 2 -17 25 5 27 28 60 31 110 11z m-1286 -28 c5 -18 19 -66 31
-105 11 -40 22 -73 24 -73 2 0 16 47 32 105 l28 105 43 0 c24 0 43 -3 43 -7
-1 -5 -29 -86 -63 -182 -69 -194 -85 -216 -157 -216 -47 0 -53 5 -44 39 4 18
13 26 29 26 51 0 51 20 -4 178 -28 81 -51 150 -51 155 0 4 18 7 39 7 36 0 40
-3 50 -32z m1503 -203 c10 -22 9 -29 -9 -47 -41 -40 -100 2 -73 52 16 30 67
27 82 -5z"/>
<path d="M854 460 c-48 -18 -57 -127 -13 -162 27 -23 41 -23 69 0 15 12 23 32
26 62 8 72 -31 119 -82 100z"/>
<path d="M1530 463 c-19 -7 -40 -33 -40 -50 0 -9 17 -13 60 -13 53 0 60 2 60
19 0 11 -10 27 -22 35 -23 17 -33 18 -58 9z"/>
<path d="M2695 355 c-5 -2 -22 -6 -36 -9 -52 -11 -43 -66 11 -66 32 0 60 27
60 58 0 20 -10 25 -35 17z"/>
<path d="M2976 438 c-9 -12 -16 -41 -16 -63 0 -53 23 -85 60 -85 37 0 60 32
60 85 0 22 -7 51 -16 63 -20 30 -68 30 -88 0z"/>
</g>
</svg>
